# xmcd
# 
# Track frame offsets:
#     150
#     15330
#     30950
#     46657
#     66980
#     82110
#     100227
#     116687
#     136287
# 
# Disc length: 2090
# 
# Revision: 2
# Processed by: cddbd v1.5.2PL0 Copyright (c) Steve Scherf et al.
# Submitted via: fre:ac v1.0.31
# 
DISCID=69082809
DTITLE=Southside Johnny and the Asbury Jukes - Best of Southside
DYEAR=0
DGENRE=
TTITLE0=Got To Be A Better Way Home
TTITLE1=This Time Baby's Gone For Good
TTITLE2=I Played The Fool
TTITLE3=Hearts Of Stone
TTITLE4=Take It Inside
TTITLE5=Talk To Me
TTITLE6=Next To You
TTITLE7=Trapped Again
TTITLE8=Light Don't Shine
EXTD=
EXTT0=
EXTT1=
EXTT2=
EXTT3=
EXTT4=
EXTT5=
EXTT6=
EXTT7=
EXTT8=
PLAYORDER=
